<svg viewBox="-250 -250 500 500" xmlns="http://www.w3.org/2000/svg"><defs><radialGradient id="d" gradientUnits="userSpaceOnUse" cx="247.716" cy="116.618" r="64.307" gradientTransform="matrix(.00268 4.80088 -2.78615 .00156 321.387 -1347.582)"><stop offset="0" stop-color="#FEFFA7"/><stop offset="1" stop-color="rgba(80, 188, 255, 0.560784)"/></radialGradient><radialGradient id="e" gradientUnits="userSpaceOnUse" cx=".193" cy=".098" r="68.193" gradientTransform="matrix(-.2644 -.23153 1.931 -2.20518 -.08 .342)" spreadMethod="reflect"><stop offset="0" stop-color="rgba(0, 127, 144, 0.8)"/><stop offset="1" stop-color="rgba(0, 157, 255, 0.529412)"/></radialGradient><radialGradient id="c" gradientUnits="userSpaceOnUse" cx="0" cy="0" r="250" gradientTransform="matrix(1.5162 -.0279 .0228 1.23845 0 0)"><stop offset="0" stop-color="rgba(0, 178, 255, 0.239216)"/><stop offset="1" stop-color="rgba(255, 255, 255, 0)"/></radialGradient><radialGradient id="a" gradientUnits="userSpaceOnUse" cx="247.716" cy="116.618" r="64.307" gradientTransform="matrix(.00133 2.37933 -1.38083 .00077 63.17 -615.34)"><stop offset="0" stop-color="#FEFFA7"/><stop offset="1" stop-color="rgba(80, 188, 255, 0.560784)"/></radialGradient><radialGradient id="b" gradientUnits="userSpaceOnUse" cx=".193" cy=".098" r="68.193" gradientTransform="matrix(-.13104 -.11475 .957 -1.0929 -96.15 52.695)" spreadMethod="reflect"><stop offset="0" stop-color="rgba(0, 127, 144, 0.8)"/><stop offset="1" stop-color="rgba(0, 157, 255, 0.529412)"/></radialGradient><radialGradient id="f" gradientUnits="userSpaceOnUse" cx="247.716" cy="116.618" r="64.307" gradientTransform="matrix(.00163 2.92463 -1.6973 .00095 287.04 -817.44)"><stop offset="0" stop-color="#FEFFA7"/><stop offset="1" stop-color="rgba(80, 188, 255, 0.560784)"/></radialGradient><radialGradient id="g" gradientUnits="userSpaceOnUse" cx=".193" cy=".098" r="68.193" gradientTransform="matrix(-.16107 -.14105 1.17634 -1.34336 91.208 3.695)" spreadMethod="reflect"><stop offset="0" stop-color="rgba(0, 127, 144, 0.8)"/><stop offset="1" stop-color="rgba(0, 157, 255, 0.529412)"/></radialGradient></defs><g stroke-linejoin="round" stroke-linecap="round"><path d="M-102.975 145.338c1.154 5.317 10.325 4.547 11.227.68 8.014-34.381.983-58.645 2.041-88.117.222-6.181 2.041-22.454 6.464-31.64 8.165-18.372 13.01-49.71-2.041-68.724-2.829-.089-.621 18.389-3.134 18.438-2.848.054-2.953-21.603-5.371-21.526-1.923.062-.693 20.471-3.56 20.439-2.336-.024-2.577-20.329-3.925-20.412-1.98-.123-1.759 21.757-4.685 21.773-2.378.013.011-18.569-2.119-18.711-14.855 21.611-8.836 50.758-1.701 69.064 3.246 8.33 5.841 23.509 5.826 31.383-.059 31.469-5.264 58.588.978 87.353z" fill="url(#a)" stroke="url(#b)" stroke-width="4" opacity=".5"/><path fill="url(#c)" d="M-250-250h500v500h-500z"/><path d="M-113.523 29.889c-19.389 0-25.26-1.75-27.385-16.626-.243-1.706-2.751-12.806-.978-13.692 7.353-3.677 17.584.983 25.429-.978 5.894-1.474 10.77-15.648 13.692-15.648 25.831 0 41.344 8.802 69.439 8.802 31.848 0 61.615-15.706 61.615 22.494 0 .978-2.934 2.934-2.934 2.934-8.324 0-18.291 5.795-26.407 7.824-21.317 5.329-44.497 6.846-66.505 6.846-11.968 0-31.13-.978-44.988-.978l-.978-.978z" fill="rgba(255, 255, 255, 0.631373)"/><path d="M-13.852 187.273c2.328 10.728 20.833 9.176 22.653 1.372 16.172-69.373 1.984-118.33 4.12-177.796.448-12.474 4.118-45.308 13.042-63.843 16.475-37.07 26.251-100.301-4.118-138.667-5.708-.179-1.254 37.104-6.323 37.202-5.748.11-5.959-43.588-10.839-43.433-3.88.124-1.398 41.303-7.182 41.241-4.713-.05-5.2-41.019-7.921-41.188-3.994-.247-3.549 43.901-9.452 43.934-4.798.027.021-37.467-4.277-37.755-29.973 43.605-17.828 102.417-3.433 139.354 6.55 16.807 11.787 47.435 11.757 63.323-.119 63.497-10.621 118.215 1.973 176.256z" fill="url(#d)" stroke="url(#e)" stroke-width="4"/><path d="M82.818 117.57c1.418 6.536 12.691 5.59 13.799.837 9.852-42.261 1.209-72.086 2.51-108.312.273-7.598 2.509-27.601 7.945-38.892 10.036-22.582 15.992-61.102-2.508-84.474-3.478-.109-.764 22.604-3.852 22.663-3.502.067-3.631-26.553-6.603-26.458-2.364.075-.852 25.161-4.375 25.123-2.872-.03-3.168-24.989-4.825-25.091-2.433-.15-2.162 26.744-5.759 26.764-2.922.016.013-22.825-2.605-23-18.259 26.564-10.86 62.391-2.091 84.892 3.99 10.239 7.181 28.897 7.162 38.576-.073 38.681-6.471 72.015 1.202 107.372z" fill="url(#f)" stroke="url(#g)" stroke-width="4" opacity=".75"/><path d="M-45.908 75.856c62.26 1.304 159.737 4.89 184.845.978 26.406-.988-7.529-16.552-31.296-22.494-7.215-1.803-20.289-14.67-30.319-14.67-25.929 9.429-57.965-11.649-87.043-1.956-4.256 1.418-7.354 11.012-10.758 12.714-3.926 1.963-26.407 12.725-26.407 16.626v4.89l.978 3.912z" fill="rgba(255, 255, 255, 0.631373)"/><path d="M-98.941 164.317v21.516m5.692-30.362v21.516m-11.362-18.45v21.516" fill="none" stroke-width="3" stroke="#BBEFFF"/><path d="M89.4108 141.252v30.589m8.0922-43.1652v30.589m-16.153-26.23v30.589" stroke-width="4.265" fill="none" stroke="#74DFFF"/><path d="M-3.0303 214.6054v28.3206m7.492-39.9643v28.3207m-14.9552-24.285v28.3206" stroke-width="3.9488" fill="none" stroke="#6CF"/></g></svg>